<!-- Generated by IcoMoon.io -->
<svg version="1.1" xmlns="http://www.w3.org/2000/svg" width="32" height="32" viewBox="0 0 1024 1024">
<title>arrow-up</title>
<g id="icomoon-ignore">
</g>
<path fill="#01d461" d="M0 0h1024v1024h-1024zM940.117 779.776c-7.467-46.72-37.888-85.973-128.128-122.581-31.403-14.72-66.304-24.96-76.672-48.64-3.883-14.080-4.48-21.76-1.963-30.080 6.4-27.563 39.040-35.84 64.64-28.16 16.64 5.12 32 17.92 41.643 38.4 44.117-28.843 44.117-28.843 74.88-48-11.52-17.92-17.237-25.643-25.003-33.28-26.88-30.080-62.677-45.44-120.917-44.117l-30.080 3.797c-28.843 7.040-56.32 22.4-72.96 42.88-48.64 55.083-34.603 151.083 24.277 190.763 58.24 43.52 143.403 53.077 154.283 94.080 10.24 49.92-37.12 65.92-83.883 60.16-34.603-7.68-53.76-25.003-74.88-57.003l-78.080 44.843c8.96 20.48 19.2 29.397 34.56 47.317 74.24 74.923 259.84 71.083 293.163-42.837 1.237-3.84 10.24-30.080 3.157-70.4zM556.843 470.656h-95.915c0 82.688-0.384 164.864-0.384 247.68 0 52.565 2.688 100.821-5.888 115.669-14.080 29.397-50.347 25.643-66.816 20.48-16.896-8.363-25.472-19.883-35.413-36.48-2.688-4.48-4.693-8.363-5.419-8.363l-77.867 48c13.013 26.88 32 50.005 56.491 64.725 36.48 21.76 85.504 28.8 136.832 17.28 33.408-9.643 62.208-29.483 77.269-60.203 21.76-39.68 17.152-88.32 16.939-142.763 0.512-87.637 0-175.317 0-263.637z"></path>
</svg>
